<?xml version="1.0" encoding="UTF-8" standalone="no"?>
<!-- Created with Inkscape (http://www.inkscape.org/) -->

<svg
   width="32"
   height="32"
   viewBox="0 0 8.4666665 8.4666666"
   version="1.1"
   id="svg5"
   xml:space="preserve"
   inkscape:version="1.2.2 (b0a8486541, 2022-12-01)"
   sodipodi:docname="button-pending.svg"
   xmlns:inkscape="http://www.inkscape.org/namespaces/inkscape"
   xmlns:sodipodi="http://sodipodi.sourceforge.net/DTD/sodipodi-0.dtd"
   xmlns="http://www.w3.org/2000/svg"
   xmlns:svg="http://www.w3.org/2000/svg"><sodipodi:namedview
     id="namedview7"
     pagecolor="#505050"
     bordercolor="#ffffff"
     borderopacity="1"
     inkscape:showpageshadow="0"
     inkscape:pageopacity="0"
     inkscape:pagecheckerboard="1"
     inkscape:deskcolor="#505050"
     inkscape:document-units="mm"
     showgrid="false"
     inkscape:zoom="29.276993"
     inkscape:cx="14.482362"
     inkscape:cy="16.770848"
     inkscape:window-width="2560"
     inkscape:window-height="1355"
     inkscape:window-x="0"
     inkscape:window-y="0"
     inkscape:window-maximized="1"
     inkscape:current-layer="layer1" /><defs
     id="defs2"><mask
       maskUnits="userSpaceOnUse"
       id="mask2481"><path
         style="color:#000000;fill:#f2f2f2;stroke-width:1;-inkscape-stroke:none"
         d="m 4.2324218,2.1640625 c 0.4236482,7e-6 0.7258405,0.1046481 0.9550781,0.359375 0.2292377,0.2547269 0.421875,0.7238358 0.421875,1.5644531 v 0.5292968 h 0.5273437 c 0.6676313,1.11e-5 1.1992078,0.5296344 1.1992189,1.1972658 -1.11e-5,0.667631 -0.5315876,1.1972544 -1.1992189,1.1972655 H 2.328125 C 1.6604938,7.0117076 1.1308705,6.4820842 1.1308594,5.8144532 1.1308705,5.1468221 1.6604938,4.6171985 2.328125,4.6171874 H 2.8574219 V 4.0878906 c 0,-0.8411229 0.1927175,-1.3098923 0.421875,-1.5644531 0.2291575,-0.2545607 0.5293209,-0.3593679 0.9531249,-0.359375 z"
         id="path2483"
         sodipodi:nodetypes="cssccccccccssc" /></mask></defs><g
     inkscape:label="Layer 1"
     inkscape:groupmode="layer"
     id="layer1"><g
       id="g1103"
       mask="url(#mask2481)"
       style="stroke:#ffffff;stroke-width:0.66145833;stroke-dasharray:none;fill:none;fill-opacity:0.30000001;stroke-opacity:0.2"><path
         style="fill:none;stroke:#ffffff;stroke-width:0.66145833;stroke-linecap:butt;stroke-linejoin:miter;stroke-dasharray:none;stroke-opacity:0.2;fill-opacity:0.30000001"
         d="M 11.962243,1.2371266 5.1888394,8.0105411"
         id="path1074" /><path
         style="fill:none;stroke:#ffffff;stroke-width:0.66145833;stroke-linecap:butt;stroke-linejoin:miter;stroke-dasharray:none;stroke-opacity:0.2;fill-opacity:0.30000001"
         d="M 9.8455866,1.2371266 3.0721726,8.0105411"
         id="path1076" /><path
         style="fill:none;stroke:#ffffff;stroke-width:0.66145833;stroke-linecap:butt;stroke-linejoin:miter;stroke-dasharray:none;stroke-opacity:0.2;fill-opacity:0.30000001"
         d="M 7.7289198,1.2371266 0.95550811,8.0105411"
         id="path1078" /><path
         style="fill:none;stroke:#ffffff;stroke-width:0.66145833;stroke-linecap:butt;stroke-linejoin:miter;stroke-dasharray:none;stroke-opacity:0.2;fill-opacity:0.30000001"
         d="M 5.612253,1.2371266 -1.1611608,8.0105411"
         id="path1080" /></g><path
       id="circle1328"
       style="display:inline;fill:none;fill-opacity:0.7;stroke:#f2f2f2;stroke-width:1.058;stroke-dasharray:none;stroke-opacity:1;stop-color:#000000;opacity:0.3"
       d="m 4.2333333,1.6347973 c -1.0516956,1.75e-5 -1.9042765,0.6086433 -1.9042765,2.453842 -0.9535184,1.59e-5 -1.72649375,0.7729912 -1.7265096,1.7265096 1.585e-5,0.9535184 0.7729912,1.7264937 1.7265096,1.7265096 H 6.1376099 C 7.0911283,7.5416426 7.8641036,6.7686673 7.8641195,5.8151489 7.8641036,4.8616305 7.0911283,4.0886552 6.1376099,4.0886393 c 0,-1.8442693 -0.852581,-2.4538245 -1.9042766,-2.453842 z"
       sodipodi:nodetypes="cccccccc"
       sodipodi:insensitive="true" /></g></svg>
