<svg width="12" height="12" viewBox="0 0 12 12" fill="none" xmlns="http://www.w3.org/2000/svg">
<g clip-path="url(#clip0_3829_1185)">
<path d="M8.82 11.78C8.55 11.78 8.29 11.71 8.05 11.56L6 10.26L3.95 11.56C3.45 11.88 2.81 11.85 2.34 11.51C1.86 11.16 1.65 10.57 1.79 9.99L2.39 7.64L0.519996 6.09C0.0599957 5.71 -0.110004 5.1 0.0699958 4.54C0.249996 3.98 0.749996 3.59 1.35 3.55L3.77 3.39L4.67 1.14C4.89 0.589996 5.41 0.229996 6.01 0.229996C6.61 0.229996 7.13 0.589996 7.35 1.14L8.25 3.39L10.67 3.55C11.26 3.59 11.76 3.98 11.95 4.54C12.13 5.1 11.95 5.71 11.5 6.09L9.63 7.64L10.23 9.99C10.38 10.56 10.16 11.16 9.68 11.51C9.43 11.69 9.13 11.79 8.83 11.79L8.82 11.78ZM6 8.9C6.12 8.9 6.23 8.93 6.33 9L8.71 10.51C8.8 10.57 8.87 10.54 8.92 10.51C8.97 10.48 9.02 10.41 8.99 10.31L8.29 7.58C8.23 7.35 8.31 7.1 8.5 6.95L10.67 5.15C10.75 5.08 10.75 5 10.73 4.95C10.71 4.9 10.67 4.83 10.56 4.82L7.75 4.64C7.51 4.62 7.3 4.47 7.21 4.25L6.17 1.63C6.09 1.43 5.9 1.43 5.82 1.63L4.78 4.25C4.69 4.47 4.48 4.63 4.24 4.64L1.43 4.82C1.32 4.82 1.28 4.89 1.26 4.95C1.24 5.01 1.24 5.09 1.32 5.15L3.49 6.95C3.68 7.1 3.76 7.35 3.7 7.58L3 10.31C2.97 10.41 3.02 10.48 3.07 10.51C3.12 10.54 3.19 10.57 3.28 10.51L5.66 9C5.76 8.94 5.88 8.9 5.99 8.9H6Z" fill="black"/>
</g>
<defs>
<clipPath id="clip0_3829_1185">
<rect width="12" height="12" fill="white"/>
</clipPath>
</defs>
</svg>
